<svg width="1200" height="960" viewBox="0 0 1200 960" fill="none" xmlns="http://www.w3.org/2000/svg">
  <defs>
    <linearGradient id="background" x1="0" y1="0" x2="1200" y2="960" gradientUnits="userSpaceOnUse">
      <stop stop-color="#F5F3FF"/>
      <stop offset="1" stop-color="#E0F2FE"/>
    </linearGradient>
    <linearGradient id="hero" x1="140" y1="150" x2="1050" y2="760" gradientUnits="userSpaceOnUse">
      <stop stop-color="#6D28D9"/>
      <stop offset="1" stop-color="#2563EB"/>
    </linearGradient>
    <filter id="shadow" x="-30%" y="-30%" width="160%" height="160%" color-interpolation-filters="sRGB">
      <feDropShadow dx="0" dy="22" stdDeviation="24" flood-color="#312E81" flood-opacity="0.18"/>
    </filter>
  </defs>

  <rect width="1200" height="960" rx="44" fill="url(#background)"/>
  <circle cx="1010" cy="135" r="190" fill="#C4B5FD" fill-opacity="0.26"/>
  <circle cx="160" cy="840" r="230" fill="#93C5FD" fill-opacity="0.24"/>

  <g filter="url(#shadow)">
    <rect x="108" y="108" width="984" height="744" rx="34" fill="white"/>
    <rect x="108" y="108" width="984" height="86" rx="34" fill="#0F172A"/>
    <rect x="108" y="160" width="984" height="34" fill="#0F172A"/>
    <circle cx="150" cy="151" r="10" fill="#F87171"/>
    <circle cx="184" cy="151" r="10" fill="#FBBF24"/>
    <circle cx="218" cy="151" r="10" fill="#34D399"/>
    <rect x="280" y="140" width="270" height="22" rx="11" fill="#334155"/>

    <rect x="160" y="242" width="260" height="548" rx="26" fill="#F8FAFC"/>
    <circle cx="204" cy="294" r="22" fill="#7C3AED"/>
    <path d="M194 294h20M204 284v20" stroke="white" stroke-width="5" stroke-linecap="round"/>
    <text x="242" y="302" fill="#0F172A" font-family="Arial, sans-serif" font-size="24" font-weight="700">SiCek PTM</text>
    <text x="194" y="365" fill="#64748B" font-family="Arial, sans-serif" font-size="16">MENU UTAMA</text>
    <rect x="184" y="391" width="212" height="52" rx="16" fill="#EDE9FE"/>
    <circle cx="211" cy="417" r="8" fill="#7C3AED"/>
    <text x="234" y="424" fill="#5B21B6" font-family="Arial, sans-serif" font-size="17" font-weight="700">Dashboard</text>
    <circle cx="211" cy="481" r="8" fill="#94A3B8"/>
    <text x="234" y="488" fill="#475569" font-family="Arial, sans-serif" font-size="17">Screening</text>
    <circle cx="211" cy="545" r="8" fill="#94A3B8"/>
    <text x="234" y="552" fill="#475569" font-family="Arial, sans-serif" font-size="17">Edukasi</text>
    <circle cx="211" cy="609" r="8" fill="#94A3B8"/>
    <text x="234" y="616" fill="#475569" font-family="Arial, sans-serif" font-size="17">Tentang</text>
    <rect x="184" y="720" width="212" height="1" fill="#E2E8F0"/>
    <text x="184" y="759" fill="#94A3B8" font-family="Arial, sans-serif" font-size="14">Public health screening</text>

    <text x="470" y="290" fill="#0F172A" font-family="Arial, sans-serif" font-size="30" font-weight="700">Screening PTM</text>
    <text x="470" y="325" fill="#64748B" font-family="Arial, sans-serif" font-size="18">Kenali faktor risiko sejak dini</text>

    <rect x="470" y="370" width="250" height="170" rx="24" fill="url(#hero)"/>
    <text x="500" y="415" fill="#DDD6FE" font-family="Arial, sans-serif" font-size="17">TOTAL SCREENING</text>
    <text x="500" y="480" fill="white" font-family="Arial, sans-serif" font-size="54" font-weight="700">1,248</text>
    <text x="500" y="515" fill="#DBEAFE" font-family="Arial, sans-serif" font-size="16">Data responden</text>

    <rect x="748" y="370" width="270" height="170" rx="24" fill="#F0FDF4"/>
    <text x="778" y="415" fill="#166534" font-family="Arial, sans-serif" font-size="17">STATUS RISIKO</text>
    <path d="M800 480c0-31 25-56 56-56s56 25 56 56" stroke="#22C55E" stroke-width="18" stroke-linecap="round"/>
    <path d="M856 480l37-35" stroke="#166534" stroke-width="8" stroke-linecap="round"/>
    <text x="934" y="490" fill="#166534" font-family="Arial, sans-serif" font-size="20" font-weight="700">Aman</text>

    <rect x="470" y="584" width="548" height="206" rx="24" fill="#F8FAFC"/>
    <text x="500" y="630" fill="#0F172A" font-family="Arial, sans-serif" font-size="19" font-weight="700">Distribusi hasil screening</text>
    <rect x="510" y="724" width="58" height="30" rx="8" fill="#34D399"/>
    <rect x="590" y="682" width="58" height="72" rx="8" fill="#60A5FA"/>
    <rect x="670" y="650" width="58" height="104" rx="8" fill="#A78BFA"/>
    <rect x="750" y="700" width="58" height="54" rx="8" fill="#FBBF24"/>
    <rect x="830" y="668" width="58" height="86" rx="8" fill="#FB7185"/>
    <rect x="910" y="714" width="58" height="40" rx="8" fill="#38BDF8"/>
    <line x1="500" y1="754" x2="990" y2="754" stroke="#CBD5E1" stroke-width="2"/>
  </g>

  <text x="108" y="908" fill="#475569" font-family="Arial, sans-serif" font-size="20" font-weight="700">Sistem Screening Faktor Risiko Penyakit Tidak Menular</text>
</svg>
